PathFileType	4	(X/Y/Z)	C:/Users/beibeiliu/ov580/test_trc/User1\sequence.32_training_dense_left.trc
DataRate	CameraRate	NumFrames	NumMarkers	Units	OrigDataRate	OrigDataStartFrame	OrigNumFrames
120	120	14	19	mm	120	85	224
Frame#	Time	ThumbCMC			ThumbMCP			ThumbIP			ThumbTip			IndexMCP			IndexPIP			IndexTip			MiddleMCP			MiddlePIP			MiddleTip			RingMCP			RingPIP			RingTip			PinkyMCP			PinkyPIP			PinkyTip			BackHand1			BackHand2			BackHand3	
		X0	Y0	Z0	X1	Y1	Z1	X2	Y2	Z2	X3	Y3	Z3	X4	Y4	Z4	X5	Y5	Z5	X6	Y6	Z6	X7	Y7	Z7	X8	Y8	Z8	X9	Y9	Z9	X10	Y10	Z10	X11	Y11	Z11	X12	Y12	Z12	X13	Y13	Z13	X14	Y14	Z14	X15	Y15	Z15	X16	Y16	Z16	X17	Y17	Z17	X18	Y18	Z18	
84	0.7	-76.1406	-38.5996	66.6119	-53.5848	-45.2438	50.7172	-31.7091	-42.5063	35.3747	-15.5115	-45.7963	25.3736	-68.781	-8.56026	-11.5883	-66.2197	3.8133	-37.2874	-61.8943	15.4047	-52.7549	-90.12	7.16816	-23.9241	-89.9851	18.1907	-41.0212	-83.9006	37.9969	-59.4623	-118.128	9.3212	-18.0419	-113.513	23.9506	-39.317	-110.714	39.5903	-56.8445	-146.47	-1.59478	-8.62373	-156.691	6.23043	-21.4503	-155.911	23.7916	-37.617	-125.78	1.8738	29.0088	-131.451	-1.48516	65.0613	-93.1718	-7.99987	51.3836	
85	0.708333	-78.064	-36.7673	68.3672	-57.4522	-41.0205	48.6319	-38.1549	-39.1168	31.7655	-17.1296	-40.6317	21.4922	-72.1033	0.523097	-11.5008	-69.2386	10.4302	-30.4976	-65.7466	26.7827	-50.7132	-92.7091	14.8321	-18.2128	-88.4523	28.8593	-40.4238	-86.272	46.3535	-56.7148	-121.786	17.263	-15.023	-114.693	31.3337	-34.6262	-116.128	49.2575	-54.4926	-152.845	5.67593	-6.86061	-156.957	12.4628	-20.3161	-162.856	32.8561	-37.9227	-129.303	3.93835	33.0432	-131.722	2.15487	63.6108	-96.1733	-5.41031	55.7211	
86	0.716667	-81.323	-32.2785	68.8938	-56.5233	-37.0309	50.1386	-36.4264	-35.8757	34.8055	-16.5521	-35.7974	17.6094	-74.0459	7.70977	-7.56757	-65.0494	21.3109	-28.8084	-63.5905	37.0713	-50.7605	-97.748	23.231	-13.8731	-90.7262	36.3326	-34.9972	-88.2238	60.5896	-56.8532	-120.064	23.3188	-12.2892	-117.912	42.089	-34.4916	-116.922	54.7276	-51.2216	-149.944	10.4213	-4.69116	-156.01	20.9903	-23.0118	-164.376	37.0273	-36.3177	-131.14	7.28234	36.137	-132.743	6.52712	65.4348	-96.5526	0.43071	56.747	
87	0.725	-80.975	-28.3011	70.6016	-55.2681	-32.6169	52.4944	-40.2311	-29.1171	31.9862	-18.3819	-32.4635	20.3793	-72.2692	17.0162	-6.07662	-66.9534	28.5577	-26.5597	-62.6575	42.0373	-50.2487	-93.1458	32.5553	-11.8048	-87.3786	46.174	-32.6516	-86.3036	62.781	-55.5118	-122.397	31.6943	-9.39394	-115.564	47.0079	-30.5945	-113.551	61.2462	-53.6261	-150.269	16.5068	-3.28821	-159.632	27.5511	-21.6476	-164.218	41.3001	-38.084	-131.528	15.5281	38.2127	-137.783	9.26018	71.3289	-99.2884	5.69743	59.2485	
88	0.733333	-80.7407	-21.1482	71.1562	-57.7699	-26.0806	54.6389	-35.1546	-21.9339	33.6781	-20.9839	-24.4438	16.3239	-73.1256	22.2581	-1.79583	-63.2926	35.5655	-28.3561	-64.1029	44.2652	-50.7402	-96.374	40.9888	-11.8218	-89.9774	53.847	-34.9215	-85.3964	65.6972	-57.4296	-123.398	36.1919	-7.90451	-115.831	50.3599	-30.8464	-114.689	61.5577	-55.3619	-149.843	22.6527	-3.07452	-155.83	29.6328	-20.8139	-163.384	42.341	-39.4475	-130.188	20.6422	42.2999	-139.176	15.6517	71.7441	-98.4856	11.5334	58.1696	
89	0.741667	-81.5865	-14.3244	71.7037	-57.6395	-18.5549	55.228	-39.0625	-15.3498	33.4384	-22.5245	-19.6584	20.6392	-71.8986	29.7997	-2.074	-63.8374	39.9934	-29.6502	-58.7436	44.9112	-56.2835	-95.7066	47.1639	-11.6939	-87.488	57.4714	-36.4959	-87.714	67.6933	-63.6493	-119.305	43.2725	-9.18466	-116.698	56.2533	-34.1577	-111.81	60.5518	-60.2383	-152.036	27.0027	-1.77495	-154.553	33.4068	-24.8172	-154.977	42.1445	-50.0017	-133.454	27.3094	41.7911	-141.407	21.5234	73.1172	-99.064	19.2883	61.0215	
90	0.75	-79.2252	-8.08996	75.6431	-57.4186	-11.9854	55.1164	-34.4344	-9.72079	33.4228	-22.8562	-11.9768	14.525	-72.9935	37.4778	-1.13614	-65.5213	44.7	-28.108	-62.5343	41.6284	-60.8147	-95.4621	50.5542	-8.63462	-89.7677	60.7037	-36.1223	-87.8437	65.9655	-70.8159	-118.478	47.7372	-8.28659	-114.906	59.071	-38.2359	-113.452	59.6642	-69.7623	-151.492	34.0027	-7.36218	-149.755	37.458	-26.8443	-148.139	38.8986	-52.6371	-128.758	32.2292	42.5377	-141.525	26.7063	70.2735	-98.1869	26.1634	64.1391	
91	0.758333	-78.207	-0.404128	75.386	-52.7517	-5.75574	57.597	-35.424	-4.80539	35.4567	-25.3602	-7.83523	14.6132	-68.6275	44.6692	-5.68887	-66.6591	47.4398	-32.983	-64.8018	35.194	-61.3862	-93.2793	56.3562	-8.92777	-87.6003	64.5047	-43.6043	-88.3738	61.648	-75.1894	-117.839	55.6603	-14.9777	-116.943	60.1496	-41.5234	-114.582	53.6663	-70.3066	-147.414	37.2833	-4.32647	-149.758	38.5512	-31.9144	-144.25	32.707	-59.9731	-129.08	40.1542	41.552	-139.073	33.581	70.5645	-100.327	31.8086	61.0527	
92	0.766667	-78.3692	5.25779	75.5512	-55.6744	0.612892	57.1677	-35.2624	4.49713	32.7002	-28.3556	0.918987	9.81205	-72.0464	48.9812	-3.4485	-66.8776	49.5251	-36.9557	-69.188	29.27	-58.1926	-97.1515	62.7149	-12.3599	-91.5001	64.8204	-45.277	-87.1928	51.9902	-78.5505	-120.084	58.4237	-15.643	-115.385	58.7381	-47.3986	-110.824	46.1365	-70.5425	-147.413	42.7395	-8.06907	-144.431	39.7135	-34.0785	-132.798	23.5193	-58.4582	-132.533	45.3207	40.9927	-138.734	36.3324	74.4093	-104.331	36.6802	63.7469	
93	0.775	-78.114	10.6865	75.093	-51.3877	8.32555	54.7119	-37.3184	8.64395	33.8861	-23.7347	4.85121	10.5541	-67.9857	53.1245	-2.70931	-65.508	50.0443	-36.4894	-66.8773	19.0264	-54.659	-91.9247	65.0193	-17.612	-88.4611	62.2773	-47.421	-90.4224	38.5689	-75.3753	-118.401	59.6514	-20.2234	-113.774	54.1443	-47.7301	-107.888	30.1703	-69.7506	-141.212	45.2759	-9.53411	-137.911	36.6853	-35.8767	-126.018	12.6855	-52.1248	-126.596	51.0476	41.8668	-134.834	40.6332	72.0201	-99.8778	43.0603	64.0004	
94	0.783333	-79.0606	15.3042	75.271	-46.9726	10.9988	58.1732	-31.7168	14.2374	31.6289	-25.8473	9.28253	10.1609	-65.5392	54.959	-7.98985	-67.7227	47.5394	-38.6778	-68.0643	16.0712	-47.9435	-88.9707	64.4659	-19.8588	-85.0334	54.3139	-51.8184	-90.5794	21.9561	-71.0295	-115.612	58.788	-20.8275	-110.255	47.9201	-48.8351	-111.092	15.7874	-63.8703	-138.919	44.7288	-11.4758	-139.547	32.5806	-35.1565	-122.594	3.92292	-45.2947	-125.091	51.6569	41.4398	-135.178	46.1149	72.129	-100.094	46.2698	62.2004	
95	0.791667	-76.9378	18.5779	74.6351	-47.0091	13.4337	59.9745	-33.7899	18.0913	32.0628	-22.33	10.0816	10.1036	-65.6238	57.1375	-10.8201	-67.0883	44.6081	-41.0586	-70.0993	8.85017	-42.7793	-91.6038	63.3836	-22.6741	-85.8717	50.4341	-50.6305	-91.7332	11.4131	-61.4809	-116.425	57.5479	-23.3577	-112.611	42.283	-48.6405	-112.011	9.91742	-53.0142	-141.966	45.0416	-10.9122	-133.904	23.2229	-35.6014	-117.624	-1.91325	-31.7373	-125.755	58.2237	37.7406	-133.045	46.9084	71.0539	-93.1374	49.6759	62.2321	
96	0.8	-73.7617	21.2307	73.4994	-46.7054	18.2288	56.83	-27.3998	19.0965	30.9812	-24.8709	12.5126	6.7248	-64.1769	55.7543	-9.71677	-60.8768	43.2442	-41.6365	-67.4292	6.4609	-40.9997	-90.2944	59.3486	-21.4593	-87.5516	39.9734	-52.6057	-90.5556	4.10394	-53.1608	-111.107	54.9713	-24.7746	-109.189	31.6048	-49.4798	-111.27	0.546138	-41.7824	-136.526	42.0572	-16.1719	-129.816	18.0535	-31.1765	-119.205	-7.7303	-20.0196	-124.631	58.7897	36.4869	-133.372	53.3401	68.4589	-92.2027	48.461	62.5984	
97	0.808333	-73.5629	22.2266	74.4383	-44.4589	18.3977	59.0813	-31.3319	18.1214	34.7133	-24.4819	11.3436	4.81112	-62.506	53.7419	-7.92188	-60.2963	38.0126	-42.6201	-63.9221	2.41249	-38.5814	-90.8394	54.161	-24.038	-84.997	28.8617	-51.3617	-87.5923	-6.85719	-42.8358	-111.127	47.8298	-25.8785	-111.865	20.6125	-45.8957	-111.719	-8.94323	-30.5001	-135.936	35.63	-15.6282	-126.281	8.36349	-25.9121	-114.983	-13.767	-5.68661	-120.388	58.5184	36.3809	-133.676	50.0902	70.7471	-93.2365	51.097	57.9556	
